<svg width="19" height="18" viewBox="0 0 19 18" fill="none" xmlns="http://www.w3.org/2000/svg">
<path fill-rule="evenodd" clip-rule="evenodd" d="M4.74998 0.799988H1.58998L0.819984 12.4C0.773378 13.0838 0.867854 13.7699 1.09754 14.4156C1.32723 15.0614 1.68723 15.653 2.15518 16.1538C2.62313 16.6545 3.18904 17.0538 3.81777 17.3266C4.44649 17.5995 5.1246 17.7402 5.80998 17.74H13.19C13.8745 17.7401 14.5517 17.5997 15.1797 17.3274C15.8077 17.0552 16.3731 16.6569 16.8409 16.1572C17.3087 15.6575 17.669 15.0671 17.8993 14.4225C18.1296 13.778 18.2252 13.093 18.18 12.41L17.4 0.799988H4.74998ZM4.74998 1.79999H2.52998L1.81998 12.47C1.783 13.0167 1.85873 13.5652 2.04249 14.0814C2.22625 14.5976 2.51412 15.0706 2.88823 15.471C3.26235 15.8713 3.71474 16.1906 4.21734 16.4089C4.71994 16.6272 5.26203 16.7399 5.80998 16.74H13.19C13.7388 16.7412 14.282 16.6295 14.7858 16.4119C15.2895 16.1942 15.7431 15.8751 16.1183 15.4746C16.4935 15.0741 16.7823 14.6007 16.9666 14.0838C17.151 13.5669 17.227 13.0175 17.19 12.47L16.47 1.79999H14.25V2.42999C14.25 3.05377 14.1271 3.67144 13.8884 4.24773C13.6497 4.82403 13.2998 5.34767 12.8587 5.78874C12.4177 6.22982 11.894 6.57971 11.3177 6.81842C10.7414 7.05713 10.1238 7.17999 9.49998 7.17999C8.87621 7.17999 8.25853 7.05713 7.68224 6.81842C7.10594 6.57971 6.58231 6.22982 6.14123 5.78874C5.70015 5.34767 5.35027 4.82403 5.11156 4.24773C4.87285 3.67144 4.74998 3.05377 4.74998 2.42999V1.79999ZM13.25 1.79999H5.74998V2.42999C5.74998 3.42455 6.14507 4.37838 6.84833 5.08164C7.55159 5.7849 8.50542 6.17999 9.49998 6.17999C10.4945 6.17999 11.4484 5.7849 12.1516 5.08164C12.8549 4.37838 13.25 3.42455 13.25 2.42999V1.79999Z" fill="black"/>
</svg>
