<svg width="20" height="14" viewBox="0 0 20 14" fill="none" xmlns="http://www.w3.org/2000/svg">
<g clip-path="url(#clip0_150_40)">
<path d="M16.6306 12.7474H2.47142C1.58838 12.7474 0.872803 12.0023 0.872803 11.0829V2.68131C0.872803 1.76189 1.58838 1.01685 2.47142 1.01685H16.6306C17.5137 1.01685 18.2292 1.76189 18.2292 2.68131V11.075C18.2292 12.0023 17.5137 12.7474 16.6306 12.7474Z" fill="#DDDDDD"/>
<path d="M17.1866 2.3725H1.79419V4.61556H17.1866V2.3725Z" fill="#AFAFAF"/>
<path d="M17.1866 5.53473H1.79419V7.77778H17.1866V5.53473Z" fill="#F9F9F9"/>
<path d="M15.7012 8.78447C18.0051 8.78447 19.8728 6.83984 19.8728 4.44099C19.8728 2.04216 18.0051 0.0975342 15.7012 0.0975342C13.3972 0.0975342 11.5295 2.04216 11.5295 4.44099C11.5295 6.83984 13.3972 8.78447 15.7012 8.78447Z" fill="#828282"/>
<path d="M13.6772 6.30347H12.9997V3.63243C12.7484 3.87021 12.4592 4.05251 12.1243 4.1714V3.52939C12.2993 3.46598 12.4973 3.35502 12.7028 3.18857C12.9083 3.02212 13.053 2.82397 13.1291 2.59412H13.6772V6.30347Z" fill="white"/>
<path d="M14.3784 5.32067L15.0331 5.24141C15.056 5.41578 15.1092 5.55052 15.2006 5.64563C15.2919 5.74074 15.4061 5.78037 15.5355 5.78037C15.6725 5.78037 15.7944 5.72489 15.8933 5.61393C15.9923 5.50297 16.0379 5.35237 16.0379 5.16215C16.0379 4.98777 15.9923 4.84511 15.9009 4.74207C15.8096 4.63903 15.6954 4.58355 15.566 4.58355C15.4822 4.58355 15.3756 4.5994 15.2538 4.63903L15.33 4.06043C15.5127 4.06836 15.6573 4.0208 15.7486 3.93361C15.8476 3.84643 15.8933 3.72754 15.8933 3.58487C15.8933 3.45805 15.8553 3.36294 15.7868 3.29161C15.7182 3.22028 15.6192 3.18064 15.5051 3.18064C15.3909 3.18064 15.2919 3.22028 15.2082 3.30746C15.1245 3.39464 15.0788 3.51353 15.056 3.67205L14.4317 3.56109C14.4774 3.33916 14.5383 3.15686 14.6297 3.02212C14.721 2.88738 14.8428 2.78434 14.995 2.70508C15.1549 2.62582 15.33 2.59412 15.5203 2.59412C15.8553 2.59412 16.1217 2.70508 16.3196 2.92701C16.4871 3.10931 16.5708 3.31538 16.5708 3.54524C16.5708 3.87021 16.4033 4.12384 16.0608 4.32199C16.2663 4.36954 16.4262 4.47258 16.5479 4.62318C16.6698 4.7817 16.7307 4.97192 16.7307 5.19385C16.7307 5.51882 16.6165 5.79625 16.3881 6.02607C16.1597 6.25594 15.8781 6.36689 15.5355 6.36689C15.2158 6.36689 14.9493 6.27177 14.7362 6.08157C14.5307 5.8834 14.4089 5.63771 14.3784 5.32067Z" fill="white"/>
<path d="M16.8669 5.35241L17.5444 5.28107C17.5673 5.43959 17.6206 5.5664 17.7196 5.66152C17.8109 5.75663 17.9251 5.80417 18.0468 5.80417C18.1915 5.80417 18.3057 5.74078 18.4046 5.62188C18.5036 5.503 18.5493 5.3207 18.5493 5.08292C18.5493 4.85306 18.5036 4.68662 18.4046 4.57566C18.3057 4.46469 18.1839 4.40921 18.024 4.40921C17.8261 4.40921 17.651 4.4964 17.4988 4.67869L16.9507 4.59943L17.3008 2.68134H19.0974V3.34712H17.8185L17.7119 3.97328C17.8642 3.89401 18.0164 3.85439 18.1763 3.85439C18.4808 3.85439 18.732 3.96535 18.9452 4.1952C19.1583 4.42506 19.2573 4.71832 19.2573 5.08292C19.2573 5.38411 19.1735 5.66152 19.006 5.89929C18.7777 6.22424 18.4579 6.39069 18.0468 6.39069C17.7196 6.39069 17.4531 6.29562 17.2475 6.11328C17.0268 5.90721 16.905 5.66152 16.8669 5.35241Z" fill="white"/>
</g>
<defs>
<clipPath id="clip0_150_40">
<rect width="19" height="13" fill="white" transform="translate(0.872803 0.0975342)"/>
</clipPath>
</defs>
</svg>
