<svg width="21" height="21" viewBox="0 0 21 21" fill="none" xmlns="http://www.w3.org/2000/svg">
<g clip-path="url(#clip0_101_13)">
<path d="M19.1026 10.5205C21.0822 8.51886 21.0822 5.26206 19.1026 3.26046C18.1426 2.28926 16.8654 1.75446 15.507 1.75446C15.5066 1.75446 15.5066 1.75446 15.5066 1.75446C14.1482 1.75446 12.8706 2.28926 11.9102 3.26046L10.9902 4.19046L10.0702 3.26046C9.10983 2.28926 7.83263 1.75446 6.47383 1.75446C5.11543 1.75446 3.83823 2.28926 2.87783 3.26046C0.898227 5.26206 0.898227 8.51886 2.87783 10.5205L10.9902 18.7233L19.1026 10.5205ZM3.44663 3.82286C4.25543 3.00486 5.33103 2.55446 6.47383 2.55446C7.61703 2.55446 8.69263 3.00486 9.50143 3.82286L10.9902 5.32846L12.479 3.82286C13.2878 3.00486 14.3634 2.55446 15.5066 2.55446C16.6498 2.55446 17.725 3.00486 18.5338 3.82286C20.207 5.51446 20.207 8.26646 18.5338 9.95806L10.9902 17.5857L3.44663 9.95806C1.77343 8.26646 1.77343 5.51406 3.44663 3.82286Z" fill="white"/>
</g>
<defs>
<clipPath id="clip0_101_13">
<rect width="20" height="20" fill="white" transform="translate(0.990234 0.15448)"/>
</clipPath>
</defs>
</svg>
