<svg width="117" height="35" viewBox="0 0 117 35" fill="none" xmlns="http://www.w3.org/2000/svg">
<path d="M19.6058 34L8.27775 19.12V34H0.0697501V0.303999H8.27775V15.088L19.5098 0.303999H29.1578L16.1018 16.816L29.6378 34H19.6058ZM54.6585 0.303999V23.248C54.6585 26.8 53.6505 29.536 51.6345 31.456C49.6505 33.376 46.9625 34.336 43.5705 34.336C40.0185 34.336 37.1705 33.328 35.0265 31.312C32.8825 29.296 31.8105 26.432 31.8105 22.72H39.9705C39.9705 24.128 40.2585 25.2 40.8345 25.936C41.4105 26.64 42.2425 26.992 43.3305 26.992C44.3225 26.992 45.0905 26.672 45.6345 26.032C46.1785 25.392 46.4505 24.464 46.4505 23.248V0.303999H54.6585ZM69.3525 0.303999V20.464C69.3525 22.48 69.8485 24.032 70.8405 25.12C71.8325 26.208 73.2885 26.752 75.2085 26.752C77.1285 26.752 78.6005 26.208 79.6245 25.12C80.6485 24.032 81.1605 22.48 81.1605 20.464V0.303999H89.3685V20.416C89.3685 23.424 88.7285 25.968 87.4485 28.048C86.1685 30.128 84.4405 31.696 82.2645 32.752C80.1205 33.808 77.7205 34.336 75.0645 34.336C72.4085 34.336 70.0245 33.824 67.9125 32.8C65.8325 31.744 64.1845 30.176 62.9685 28.096C61.7525 25.984 61.1445 23.424 61.1445 20.416V0.303999H69.3525ZM116.252 0.303999V23.248C116.252 26.8 115.244 29.536 113.228 31.456C111.244 33.376 108.556 34.336 105.164 34.336C101.612 34.336 98.7643 33.328 96.6203 31.312C94.4763 29.296 93.4043 26.432 93.4043 22.72H101.564C101.564 24.128 101.852 25.2 102.428 25.936C103.004 26.64 103.836 26.992 104.924 26.992C105.916 26.992 106.684 26.672 107.228 26.032C107.772 25.392 108.044 24.464 108.044 23.248V0.303999H116.252Z" fill="black"/>
</svg>
