<svg width="11" height="14" viewBox="0 0 11 14" fill="none" xmlns="http://www.w3.org/2000/svg">
<path d="M9.76201 5.4694H9.52248V4.28379C9.52248 2.09099 7.87648 0.259302 5.81917 0.22004C5.76282 0.218971 5.65064 0.218971 5.59431 0.22004C3.53675 0.259302 1.89075 2.09126 1.89075 4.28406V5.46966H1.65098C1.28187 5.4694 0.980713 5.87243 0.980713 6.36976V12.316C0.980713 12.813 1.28187 13.2195 1.65124 13.2195H9.76201C10.1313 13.2195 10.4325 12.813 10.4325 12.316V6.36976C10.4325 5.87243 10.1311 5.4694 9.76201 5.4694ZM7.94292 5.4694H5.81891H5.59405H3.47005V4.28379C3.47005 2.97773 4.47407 1.89763 5.70648 1.89763C6.9389 1.89763 7.94292 2.97773 7.94292 4.28379V5.4694Z" fill="#9F9F9F"/>
</svg>
