<svg width="140" height="21" viewBox="0 0 140 21" fill="none" xmlns="http://www.w3.org/2000/svg">
<g clip-path="url(#clip0_150_2)">
<path opacity="0.07" d="M101.664 0.0871582H73.8637C72.4637 0.0871582 71.2637 1.18716 71.2637 2.58716V2.68716V18.2872C71.2637 19.6872 72.4637 20.8872 73.8637 20.8872H101.664C103.064 20.8872 104.264 19.7872 104.264 18.3872V18.2872V2.68716C104.264 1.28716 103.064 0.0871582 101.664 0.0871582Z" fill="black"/>
<path d="M101.664 0.987183C102.664 0.987183 103.364 1.78718 103.364 2.68718V18.2872C103.364 19.2872 102.564 19.9872 101.664 19.9872H73.8636C72.8636 19.9872 72.1636 19.1872 72.1636 18.2872V2.68718C72.1636 1.68718 72.9636 0.987183 73.8636 0.987183H101.664Z" fill="#006FCF"/>
<path d="M79.0638 8.98718L79.7638 10.5872H78.4638L79.0638 8.98718ZM93.0638 8.98718H90.4638V9.68718H92.9638V10.6872H90.4638V11.4872H93.0638V12.0872L94.8638 10.1872L93.0638 8.28718V8.98718ZM80.7638 6.98718H84.2638L85.0638 8.58718L85.7638 6.98718H94.7638L95.7638 7.98718L96.7638 6.98718H100.964L97.9638 10.3872L100.964 13.6872H96.7638L95.7638 12.6872L94.7638 13.6872H80.0638L79.6638 12.6872H78.6638L78.2638 13.6872H74.8638L77.6638 6.98718C77.6638 6.98718 80.7638 6.98718 80.7638 6.98718ZM88.3638 7.98718H86.4638L85.1638 10.9872L83.7638 7.98718H81.7638V12.1872L79.9638 7.98718H78.2638L76.1638 12.7872H77.5638L77.9638 11.7872H80.2638L80.6638 12.7872H82.9638V9.38718L84.5638 12.7872H85.5638L87.0638 9.38718V12.7872H88.3638V7.98718ZM96.4638 10.3872L98.6638 7.98718H97.0638L95.6638 9.48718L94.3638 7.98718H89.2638V12.7872H94.2638L95.6638 11.2872L96.9638 12.7872H98.5638L96.4638 10.3872Z" fill="white"/>
<path opacity="0.07" d="M137.073 0.0871582H109.273C107.873 0.0871582 106.673 1.18716 106.673 2.58716V2.68716V18.2872C106.673 19.6872 107.873 20.8872 109.273 20.8872H137.073C138.473 20.8872 139.673 19.7872 139.673 18.3872V18.2872V2.68716C139.573 1.28716 138.473 0.0871582 137.073 0.0871582Z" fill="black"/>
<path d="M137.073 0.987183C138.073 0.987183 138.773 1.78718 138.773 2.68718V18.2872C138.773 19.2872 137.973 19.9872 137.073 19.9872H109.273C108.273 19.9872 107.573 19.1872 107.573 18.2872V2.68718C107.573 1.68718 108.373 0.987183 109.273 0.987183H137.073Z" fill="white"/>
<path d="M138.773 14.8871V18.3871C138.773 19.3871 137.973 20.0871 137.073 20.0871H126.873C133.673 18.4871 137.173 16.0871 138.773 14.8871Z" fill="#EDA024"/>
<path d="M114.473 9.58716H131.873V11.2872H114.473V9.58716Z" fill="#494949"/>
<path d="M125.773 10.4871C125.773 11.8871 124.673 13.0871 123.273 13.0871H123.173C121.773 13.0871 120.573 11.8871 120.573 10.4871C120.573 9.08715 121.773 7.88715 123.173 7.88715C124.573 7.88715 125.673 8.98715 125.773 10.4871C125.773 10.3871 125.773 10.4871 125.773 10.4871Z" fill="#EDA024"/>
<path opacity="0.07" d="M66.2428 0.0871582H38.4428C37.0428 0.0871582 35.8428 1.18716 35.8428 2.58716V2.68716V18.2872C35.8428 19.6872 37.0428 20.8872 38.4428 20.8872H66.2428C67.6428 20.8872 68.8428 19.7872 68.8428 18.3872V18.2872V2.68716C68.8428 1.28716 67.6428 0.0871582 66.2428 0.0871582Z" fill="black"/>
<path d="M66.2427 0.987183C67.2427 0.987183 67.9427 1.78718 67.9427 2.68718V18.2872C67.9427 19.2872 67.1427 19.9872 66.2427 19.9872H38.4427C37.4427 19.9872 36.7427 19.1872 36.7427 18.2872V2.68718C36.7427 1.68718 37.5427 0.987183 38.4427 0.987183H66.2427Z" fill="white"/>
<path d="M48.8427 16.5871C52.2116 16.5871 54.9427 13.8561 54.9427 10.4871C54.9427 7.11821 52.2116 4.38715 48.8427 4.38715C45.4737 4.38715 42.7427 7.11821 42.7427 10.4871C42.7427 13.8561 45.4737 16.5871 48.8427 16.5871Z" fill="#EB001B"/>
<path d="M55.8427 16.5871C59.2116 16.5871 61.9427 13.8561 61.9427 10.4871C61.9427 7.11821 59.2116 4.38715 55.8427 4.38715C52.4737 4.38715 49.7427 7.11821 49.7427 10.4871C49.7427 13.8561 52.4737 16.5871 55.8427 16.5871Z" fill="#F79E1B"/>
<path d="M54.9427 10.4872C54.9427 8.48716 53.9427 6.68716 52.3427 5.58716C50.7427 6.68716 49.7427 8.58716 49.7427 10.4872C49.7427 12.4872 50.7427 14.2872 52.3427 15.3872C53.9427 14.3872 54.9427 12.4872 54.9427 10.4872Z" fill="#FF5F00"/>
<path opacity="0.07" d="M30.7547 0.0871582H2.95474C1.55474 0.0871582 0.354736 1.18716 0.354736 2.58716V2.68716V18.2872C0.354736 19.6872 1.55474 20.8872 2.95474 20.8872H30.7547C32.1547 20.8872 33.3547 19.7872 33.3547 18.3872V18.2872V2.68716C33.3547 1.28716 32.1547 0.0871582 30.7547 0.0871582Z" fill="black"/>
<path d="M30.7546 0.987183C31.7546 0.987183 32.4546 1.78718 32.4546 2.68718V18.2872C32.4546 19.2872 31.6546 19.9872 30.7546 19.9872H2.95464C1.95464 19.9872 1.25464 19.1872 1.25464 18.2872V2.68718C1.25464 1.68718 2.05464 0.987183 2.95464 0.987183H30.7546Z" fill="white"/>
<path d="M24.9548 8.88715H24.6548C24.2548 9.68715 23.9548 10.5871 23.7548 11.4871H25.3548C25.3548 10.5871 25.1548 9.68715 24.9548 8.88715ZM27.4548 13.9871H25.9548C25.8548 13.9871 25.8548 13.9871 25.7548 13.8871L25.6548 13.0871L25.5548 12.8871H23.4548C23.3548 12.8871 23.2548 12.8871 23.2548 13.0871L22.9548 13.8871C22.9548 13.8871 22.9548 13.9871 22.8548 13.9871H21.0548L21.2548 13.5871L23.7548 7.68715C23.7548 7.28715 24.0548 7.08715 24.4548 7.08715H25.7548C25.8548 7.08715 25.9548 7.08715 25.9548 7.28715L27.1548 12.8871C27.2548 13.1871 27.3548 13.4871 27.4548 13.9871C27.4548 13.8871 27.4548 13.8871 27.4548 13.9871ZM15.7548 13.6871L16.0548 12.0871C16.1548 12.0871 16.1548 12.0871 16.2548 12.1871C16.8548 12.4871 17.4548 12.5871 18.0548 12.4871C18.2548 12.4871 18.4548 12.3871 18.6548 12.2871C19.0548 12.0871 19.0548 11.6871 18.7548 11.2871C18.5548 11.0871 18.2548 10.9871 18.0548 10.8871C17.7548 10.6871 17.3548 10.4871 17.0548 10.2871C16.2548 9.68715 16.1548 8.58715 16.7548 7.78715C16.8548 7.68715 16.8548 7.68715 16.9548 7.58715C17.4548 7.28715 17.7548 6.88715 18.4548 6.88715C19.3548 6.88715 20.2548 6.88715 21.1548 7.08715H21.3548C21.2548 7.58715 21.1548 8.08715 21.0548 8.58715C20.6548 8.38715 20.2548 8.28715 19.7548 8.28715C19.4548 8.28715 19.2548 8.28715 18.9548 8.38715C18.8548 8.38715 18.6548 8.48715 18.6548 8.58715C18.4548 8.78715 18.4548 8.98715 18.6548 9.18715L19.0548 9.48715C19.3548 9.68715 19.6548 9.78715 20.0548 9.98715C20.5548 10.2871 20.8548 10.6871 21.0548 11.1871C21.2548 11.9871 20.9548 12.7871 20.2548 13.1871C19.9548 13.4871 19.4548 13.6871 19.0548 13.6871C18.0548 13.7871 17.0548 13.6871 16.0548 13.4871C15.8548 13.7871 15.8548 13.7871 15.7548 13.6871ZM12.7548 13.9871C12.7548 13.6871 12.8548 13.3871 12.9548 13.0871C13.3548 11.1871 13.8548 9.18715 14.1548 7.28715C14.2548 7.08715 14.2548 6.98715 14.4548 6.98715H16.0548C15.8548 7.88715 15.6548 8.88715 15.4548 9.78715C15.1548 11.0871 14.9548 12.3871 14.5548 13.6871C14.5548 13.8871 14.4548 13.8871 14.2548 13.8871M4.65479 7.18715C4.65479 7.08715 4.85478 6.98715 4.95478 6.98715H7.95478C8.35478 6.98715 8.75479 7.28715 8.85478 7.68715L9.65479 11.4871C9.65479 11.5871 9.65478 11.5871 9.75478 11.6871C9.75478 11.6871 9.75479 11.5871 9.85478 11.5871L11.6548 7.18715C11.5548 7.08715 11.6548 6.98715 11.7548 6.98715H13.5548C13.5548 7.08715 13.5548 7.08715 13.4548 7.18715L10.7548 13.4871C10.6548 13.6871 10.6548 13.7871 10.5548 13.7871C10.4548 13.7871 10.2548 13.7871 10.1548 13.7871H8.75478C8.65478 13.7871 8.55478 13.7871 8.55478 13.5871L7.25479 8.28715C6.95479 8.08715 6.75478 7.88715 6.45478 7.78715C5.95478 7.58715 5.35479 7.38715 4.75479 7.38715L4.65479 7.18715Z" fill="#142688"/>
</g>
<defs>
<clipPath id="clip0_150_2">
<rect width="139.3" height="20.8" fill="white" transform="translate(0.354736 0.0871582)"/>
</clipPath>
</defs>
</svg>
