<svg width="53" height="17" viewBox="0 0 53 17" fill="none" xmlns="http://www.w3.org/2000/svg">
<g clip-path="url(#clip0_111_180)">
<path d="M6.90377 2.34702H2.88793C2.63051 2.34702 2.37308 2.54702 2.32159 2.79702L0.725555 12.797C0.67407 12.997 0.828525 13.147 1.03447 13.147H2.93942C3.19684 13.147 3.45427 12.947 3.50575 12.697L3.91763 9.99702C3.96912 9.74702 4.17506 9.54702 4.48397 9.54702H5.7711C8.39684 9.54702 9.9414 8.29702 10.3533 5.84702C10.5077 4.79702 10.3533 3.94702 9.83843 3.34702C9.27209 2.69702 8.24239 2.34702 6.90377 2.34702ZM7.36714 5.99702C7.1612 7.39702 6.02852 7.39702 4.99882 7.39702H4.381L4.79288 4.79702C4.79288 4.64702 4.94734 4.54702 5.10179 4.54702H5.35922C6.08001 4.54702 6.74932 4.54702 7.10971 4.94702C7.36714 5.14702 7.47011 5.49702 7.36714 5.99702Z" fill="#003087"/>
<path d="M18.8484 5.94702H16.9435C16.789 5.94702 16.6345 6.04702 16.6345 6.19702L16.5316 6.69702L16.3771 6.49702C15.9652 5.89702 15.0385 5.69702 14.1118 5.69702C12.0009 5.69702 10.1989 7.24702 9.83851 9.44702C9.63257 10.547 9.88999 11.597 10.5593 12.297C11.1256 12.947 12.0009 13.247 12.9791 13.247C14.6781 13.247 15.6563 12.197 15.6563 12.197L15.5534 12.697C15.5019 12.897 15.6563 13.097 15.8623 13.097H17.6128C17.8702 13.097 18.1276 12.897 18.1791 12.647L19.2088 6.24702C19.2603 6.14702 19.0544 5.94702 18.8484 5.94702ZM16.2227 9.54702C16.0167 10.597 15.193 11.347 14.0603 11.347C13.494 11.347 13.0821 11.197 12.7732 10.847C12.4643 10.497 12.3613 10.047 12.4643 9.54702C12.6187 8.49702 13.5454 7.74702 14.6266 7.74702C15.193 7.74702 15.6048 7.94702 15.9138 8.24702C16.1712 8.59702 16.2742 9.04702 16.2227 9.54702Z" fill="#003087"/>
<path d="M29.0937 5.94702H27.1888C26.9829 5.94702 26.8284 6.04702 26.7254 6.19702L24.0482 9.99702L22.9155 6.34702C22.864 6.09702 22.6066 5.94702 22.4007 5.94702H20.4957C20.2898 5.94702 20.0838 6.14702 20.1868 6.39702L22.2977 12.447L20.2898 15.147C20.1353 15.347 20.2898 15.647 20.5472 15.647H22.4522C22.6581 15.647 22.8126 15.547 22.9155 15.397L29.3512 6.39702C29.5056 6.24702 29.3512 5.94702 29.0937 5.94702Z" fill="#003087"/>
<path d="M35.478 2.34702H31.4622C31.2047 2.34702 30.9473 2.54702 30.8958 2.79702L29.2998 12.747C29.2483 12.947 29.4027 13.097 29.6087 13.097H31.6681C31.874 13.097 32.0285 12.947 32.0285 12.797L32.4919 9.94702C32.5433 9.69702 32.7493 9.49702 33.0582 9.49702H34.3453C36.9711 9.49702 38.5156 8.24701 38.9275 5.79702C39.0819 4.74702 38.9275 3.89702 38.4126 3.29702C37.7948 2.69702 36.8166 2.34702 35.478 2.34702ZM35.9414 5.99702C35.7354 7.39702 34.6027 7.39702 33.573 7.39702H32.9552L33.3671 4.79702C33.3671 4.64702 33.5216 4.54702 33.676 4.54702H33.9334C34.6542 4.54702 35.3235 4.54702 35.6839 4.94702C35.9414 5.14702 35.9928 5.49702 35.9414 5.99702Z" fill="#009CDE"/>
<path d="M47.4226 5.94702H45.5177C45.3632 5.94702 45.2088 6.04702 45.2088 6.19702L45.1058 6.69702L44.9513 6.49702C44.5395 5.89702 43.6127 5.69702 42.686 5.69702C40.5751 5.69702 38.7731 7.24702 38.4127 9.44702C38.2068 10.547 38.4642 11.597 39.1335 12.297C39.6999 12.947 40.5751 13.247 41.5533 13.247C43.2523 13.247 44.2306 12.197 44.2306 12.197L44.1276 12.697C44.0761 12.897 44.2306 13.097 44.4365 13.097H46.187C46.4444 13.097 46.7018 12.897 46.7533 12.647L47.783 6.24702C47.783 6.14702 47.6286 5.94702 47.4226 5.94702ZM44.7454 9.54702C44.5395 10.597 43.7157 11.347 42.583 11.347C42.0167 11.347 41.6048 11.197 41.2959 10.847C40.987 10.497 40.884 10.047 40.987 9.54702C41.1414 8.49702 42.0682 7.74702 43.1494 7.74702C43.7157 7.74702 44.1276 7.94702 44.4365 8.24702C44.7454 8.59702 44.8484 9.04702 44.7454 9.54702Z" fill="#009CDE"/>
<path d="M49.688 2.59702L48.0405 12.747C47.989 12.947 48.1435 13.097 48.3494 13.097H49.9969C50.2544 13.097 50.5118 12.897 50.5633 12.647L52.2108 2.69702C52.2623 2.49702 52.1078 2.34702 51.9019 2.34702H50.0484C49.8425 2.34702 49.7395 2.44702 49.688 2.59702Z" fill="#009CDE"/>
</g>
<defs>
<clipPath id="clip0_111_180">
<rect width="52" height="16" fill="white" transform="translate(0.603516 0.947021)"/>
</clipPath>
</defs>
</svg>
