<svg width="22" height="23" viewBox="0 0 22 23" fill="none" xmlns="http://www.w3.org/2000/svg">
<g clip-path="url(#clip0_150_48)">
<path d="M10.8859 12.954C11.0628 12.954 11.2356 12.9015 11.3826 12.8033C11.5296 12.7051 11.6442 12.5655 11.7119 12.4021C11.7796 12.2387 11.7973 12.059 11.7628 11.8856C11.7283 11.7121 11.6431 11.5528 11.5181 11.4278C11.3931 11.3028 11.2338 11.2176 11.0604 11.1832C10.8869 11.1487 10.7072 11.1664 10.5438 11.234C10.3805 11.3017 10.2408 11.4163 10.1426 11.5633C10.0444 11.7103 9.99195 11.8832 9.99195 12.06C9.99195 12.1774 10.0151 12.2936 10.06 12.4021C10.1049 12.5106 10.1708 12.6091 10.2538 12.6921C10.3368 12.7751 10.4354 12.841 10.5438 12.8859C10.6523 12.9309 10.7685 12.954 10.8859 12.954ZM10.8859 7.13697C10.7203 7.13286 10.5555 7.16245 10.4016 7.22397C10.2477 7.28548 10.108 7.37762 9.99078 7.49481C9.87359 7.61199 9.78145 7.75176 9.71994 7.90564C9.65843 8.05953 9.62883 8.2243 9.63295 8.38997V9.46397H12.2239V8.38997C12.1679 8.06316 12.0064 7.76369 11.764 7.5374C11.5217 7.31111 11.2118 7.17046 10.8819 7.13697H10.8859Z" fill="#8797AD"/>
<path d="M20.8199 3.55798H19.5669C16.4349 3.55798 14.0179 1.94698 11.2429 0.0669837C11.1604 0.023121 11.0684 0.000183105 10.9749 0.000183105C10.8815 0.000183105 10.7894 0.023121 10.7069 0.0669837C8.02092 1.94698 5.51492 3.55798 2.38292 3.55798H1.12992C1.07027 3.55433 1.01052 3.56339 0.95463 3.58456C0.898743 3.60574 0.847989 3.63854 0.80573 3.6808C0.763471 3.72306 0.730669 3.77381 0.709497 3.8297C0.688325 3.88558 0.679265 3.94533 0.682918 4.00498V4.36298C0.682918 8.12198 0.682918 18.056 10.7069 22.263C10.7843 22.3209 10.8783 22.3522 10.9749 22.3522C11.0715 22.3522 11.1656 22.3209 11.2429 22.263C21.3559 18.057 21.2669 8.12198 21.2669 4.36298V4.00498C21.2706 3.94533 21.2615 3.88558 21.2403 3.8297C21.2192 3.77381 21.1864 3.72306 21.1441 3.6808C21.1018 3.63854 21.0511 3.60574 20.9952 3.58456C20.9393 3.56339 20.8796 3.55433 20.8199 3.55798ZM14.6449 14.658H7.03692V9.46398H8.20092V8.38998C8.23991 7.72804 8.53035 7.106 9.01282 6.65112C9.49529 6.19624 10.1333 5.94289 10.7964 5.94289C11.4595 5.94289 12.0975 6.19624 12.58 6.65112C13.0625 7.106 13.3529 7.72804 13.3919 8.38998V9.46398H14.5559V14.656H14.6449V14.658Z" fill="#8797AD"/>
</g>
<defs>
<clipPath id="clip0_150_48">
<rect width="20.584" height="22.352" fill="white" transform="translate(0.682861)"/>
</clipPath>
</defs>
</svg>
