<svg width="162" height="28" viewBox="0 0 162 28" fill="none" xmlns="http://www.w3.org/2000/svg">
<g clip-path="url(#clip0_8_191)">
<path d="M22.6141 26.3893L15.2961 21.2213C15.0168 21.0389 14.6392 21.0389 14.3889 21.2213L7.06638 26.4501C6.472 26.8757 5.62736 26.2981 5.87762 25.5989L8.66182 17.2389C8.71058 17.0863 8.70993 16.9228 8.65998 16.7706C8.61003 16.6183 8.51317 16.4847 8.38251 16.3877L1.02874 11.25C0.403073 10.8244 0.715904 9.88208 1.4667 9.88208H10.5075C10.6718 9.88004 10.8316 9.82951 10.9657 9.73722C11.0998 9.64492 11.2019 9.51521 11.2583 9.36526L14.0113 1.00524C14.2308 0.306034 15.2626 0.306034 15.4816 1.00524L18.2971 9.36526C18.3909 9.66928 18.7037 9.88208 19.0478 9.88208L28.0887 9.85168C28.8395 9.85168 29.1501 10.794 28.5579 11.2196L21.2399 16.3877C20.9606 16.5701 20.8645 16.9349 20.9606 17.2389L23.8096 25.5989C24.0286 26.2373 23.2152 26.8149 22.6208 26.3893H22.6141Z" fill="#D5F50A"/>
<path d="M55.8197 26.3893L48.5017 21.2213C48.2224 21.0389 47.8447 21.0389 47.5945 21.2213L40.272 26.4501C39.6776 26.8757 38.833 26.2981 39.0832 25.5989L41.8674 17.2389C41.9162 17.0863 41.9155 16.9228 41.8656 16.7706C41.8156 16.6183 41.7188 16.4847 41.5881 16.3877L34.2343 11.25C33.6087 10.8244 33.9215 9.88208 34.6723 9.88208H43.7131C43.8774 9.88004 44.0372 9.82951 44.1713 9.73722C44.3054 9.64492 44.4074 9.51521 44.4639 9.36526L47.2168 1.00524C47.4364 0.306034 48.4682 0.306034 48.6871 1.00524L51.5026 9.36526C51.5965 9.66928 51.9093 9.88208 52.2534 9.88208L61.2942 9.85168C62.045 9.85168 62.3556 10.794 61.7635 11.2196L54.4455 16.3877C54.1662 16.5701 54.0701 16.9349 54.1662 17.2389L57.0152 25.5989C57.2341 26.2373 56.4208 26.8149 55.8264 26.3893H55.8197Z" fill="#D5F50A"/>
<path d="M89.0264 26.3893L81.7084 21.2213C81.429 21.0389 81.0515 21.0389 80.8013 21.2213L73.4787 26.4501C72.8843 26.8757 72.0397 26.2981 72.29 25.5989L75.0741 17.2389C75.1229 17.0863 75.1222 16.9228 75.0723 16.7706C75.0223 16.6183 74.9256 16.4847 74.7949 16.3877L67.4411 11.25C66.8155 10.8244 67.1282 9.88208 67.879 9.88208H76.9199C77.0842 9.88004 77.2439 9.82951 77.378 9.73722C77.5121 9.64492 77.6142 9.51521 77.6707 9.36526L80.4236 1.00524C80.6432 0.306034 81.6748 0.306034 81.8938 1.00524L84.7093 9.36526C84.8032 9.66928 85.1161 9.88208 85.4601 9.88208L94.501 9.85168C95.2518 9.85168 95.5624 10.794 94.9703 11.2196L87.6523 16.3877C87.3729 16.5701 87.2769 16.9349 87.3729 17.2389L90.2219 25.5989C90.4409 26.2373 89.6275 26.8149 89.0331 26.3893H89.0264Z" fill="#D5F50A"/>
<path d="M122.233 26.3893L114.915 21.2213C114.635 21.0389 114.258 21.0389 114.007 21.2213L106.685 26.4501C106.091 26.8757 105.246 26.2981 105.496 25.5989L108.28 17.2389C108.329 17.0863 108.329 16.9228 108.279 16.7706C108.229 16.6183 108.132 16.4847 108.001 16.3877L100.647 11.25C100.022 10.8244 100.335 9.88208 101.085 9.88208H110.126C110.29 9.88004 110.45 9.82951 110.584 9.73722C110.718 9.64492 110.82 9.51521 110.877 9.36526L113.63 1.00524C113.849 0.306034 114.881 0.306034 115.1 1.00524L117.916 9.36526C118.009 9.66928 118.322 9.88208 118.666 9.88208L127.707 9.85168C128.458 9.85168 128.769 10.794 128.176 11.2196L120.858 16.3877C120.579 16.5701 120.483 16.9349 120.579 17.2389L123.428 25.5989C123.647 26.2373 122.834 26.8149 122.239 26.3893H122.233Z" fill="#D5F50A"/>
<path d="M155.439 26.3893L148.121 21.2213C147.842 21.0389 147.464 21.0389 147.214 21.2213L139.892 26.4501C139.297 26.8757 138.452 26.2981 138.703 25.5989L141.487 17.2389C141.536 17.0863 141.535 16.9228 141.485 16.7706C141.435 16.6183 141.338 16.4847 141.208 16.3877L133.854 11.25C133.228 10.8244 133.541 9.88208 134.292 9.88208H143.333C143.497 9.88004 143.657 9.82951 143.791 9.73722C143.925 9.64492 144.027 9.51521 144.083 9.36526L146.836 1.00524C147.056 0.306034 148.088 0.306034 148.307 1.00524L151.122 9.36526C151.216 9.66928 151.529 9.88208 151.873 9.88208L160.914 9.85168C161.665 9.85168 161.975 10.794 161.383 11.2196L154.065 16.3877C153.786 16.5701 153.69 16.9349 153.786 17.2389L156.635 25.5989C156.854 26.2373 156.04 26.8149 155.446 26.3893H155.439Z" fill="#D5F50A"/>
<mask id="mask0_8_191" style="mask-type:alpha" maskUnits="userSpaceOnUse" x="133" y="0" width="29" height="27">
<path d="M155.439 26.3893L148.121 21.2213C147.842 21.0389 147.464 21.0389 147.214 21.2213L139.891 26.4501C139.297 26.8757 138.452 26.2981 138.703 25.5989L141.487 17.2389C141.535 17.0863 141.535 16.9228 141.485 16.7706C141.435 16.6183 141.338 16.4847 141.207 16.3877L133.854 11.25C133.228 10.8244 133.541 9.88208 134.292 9.88208H143.332C143.497 9.88004 143.656 9.82951 143.791 9.73722C143.925 9.64492 144.027 9.51521 144.083 9.36526L146.836 1.00524C147.056 0.306034 148.087 0.306034 148.306 1.00524L151.122 9.36526C151.216 9.66928 151.529 9.88208 151.873 9.88208L160.914 9.85168C161.664 9.85168 161.975 10.794 161.383 11.2196L154.065 16.3877C153.785 16.5701 153.689 16.9349 153.785 17.2389L156.634 25.5989C156.853 26.2373 156.04 26.8149 155.446 26.3893H155.439Z" fill="white"/>
</mask>
<g mask="url(#mask0_8_191)">
<path d="M165.558 -3.60168H149.078V30.046H165.558V-3.60168Z" fill="#C9C9C9"/>
</g>
</g>
<defs>
<clipPath id="clip0_8_191">
<rect width="161" height="27" fill="white" transform="translate(0.695068 0.480835)"/>
</clipPath>
</defs>
</svg>
