<svg width="20" height="21" viewBox="0 0 20 21" fill="none" xmlns="http://www.w3.org/2000/svg">
<g clip-path="url(#clip0_101_2)">
<path d="M19.4323 10.9036L17.9114 7.38149C17.7853 7.09047 17.5824 6.84369 17.3269 6.6705C17.0715 6.49731 16.7741 6.405 16.4702 6.40454H13.6722V5.15454C13.6719 4.82313 13.5466 4.5054 13.324 4.27106C13.1014 4.03672 12.7995 3.9049 12.4847 3.90454H2.58885C2.27401 3.9049 1.97217 4.03672 1.74954 4.27106C1.52692 4.5054 1.4017 4.82313 1.40135 5.15454V10.1545C1.40085 10.2096 1.41071 10.2642 1.43038 10.3152C1.45004 10.3663 1.47912 10.4127 1.51592 10.4518C1.55273 10.4909 1.59654 10.522 1.64481 10.5431C1.69309 10.5643 1.74487 10.5753 1.79718 10.5753C1.84949 10.5753 1.90127 10.5643 1.94955 10.5431C1.99782 10.522 2.04163 10.4909 2.07844 10.4518C2.11524 10.4127 2.14432 10.3663 2.16398 10.3152C2.18365 10.2642 2.19351 10.2096 2.19301 10.1545V5.15454C2.19313 5.04407 2.23487 4.93816 2.30908 4.86004C2.38329 4.78193 2.4839 4.73799 2.58885 4.73786H12.4847C12.5896 4.73799 12.6903 4.78193 12.7645 4.86004C12.8387 4.93816 12.8804 5.04407 12.8805 5.15454V11.8212C12.8804 11.9317 12.8386 12.0376 12.7644 12.1157C12.6902 12.1938 12.5896 12.2377 12.4847 12.2379H7.7347C7.63038 12.2389 7.53068 12.2833 7.45727 12.3613C7.38387 12.4393 7.34269 12.5447 7.34269 12.6545C7.34269 12.7643 7.38387 12.8697 7.45727 12.9477C7.53068 13.0258 7.63038 13.0701 7.7347 13.0712H12.4847C12.7995 13.0708 13.1014 12.939 13.324 12.7047C13.5466 12.4703 13.6719 12.1526 13.6722 11.8212V7.23786H16.4702C16.6222 7.23808 16.7709 7.28423 16.8987 7.37083C17.0264 7.45742 17.1279 7.58081 17.191 7.72634L17.3399 8.07118H15.6514C15.4415 8.0714 15.2403 8.15927 15.0918 8.3155C14.9434 8.47174 14.8599 8.68358 14.8597 8.90454V10.5712C14.8599 10.7922 14.9434 11.004 15.0918 11.1602C15.2402 11.3165 15.4415 11.4043 15.6514 11.4045H18.7663C18.8003 11.5215 18.8178 11.6431 18.818 11.7655V13.4879C18.8179 13.5984 18.7761 13.7042 18.7019 13.7823C18.6277 13.8604 18.5271 13.9044 18.4222 13.9045H17.1948C17.1035 13.434 16.8607 13.0112 16.5073 12.7075C16.1539 12.4038 15.7117 12.2379 15.2555 12.2379C14.7993 12.2379 14.3571 12.4038 14.0037 12.7075C13.6504 13.0112 13.4075 13.434 13.3162 13.9045H6.90311C6.81186 13.434 6.569 13.0112 6.21562 12.7075C5.86225 12.4038 5.42005 12.2379 4.96385 12.2379C4.50765 12.2379 4.06546 12.4038 3.71208 12.7075C3.35871 13.0112 3.11585 13.434 3.02459 13.9045H2.58885C2.48391 13.9044 2.38331 13.8604 2.3091 13.7823C2.23489 13.7042 2.19315 13.5983 2.19301 13.4879V13.0712C2.29732 13.0702 2.39702 13.0258 2.47043 12.9478C2.54384 12.8697 2.58502 12.7644 2.58502 12.6546C2.58502 12.5447 2.54384 12.4394 2.47043 12.3614C2.39702 12.2833 2.29732 12.239 2.19301 12.2379H1.00551C0.901192 12.239 0.801492 12.2833 0.728084 12.3614C0.654676 12.4394 0.613495 12.5447 0.613495 12.6546C0.613495 12.7644 0.654676 12.8697 0.728084 12.9478C0.801492 13.0258 0.901192 13.0702 1.00551 13.0712H1.40135V13.4879C1.4017 13.8193 1.52692 14.137 1.74954 14.3714C1.97217 14.6057 2.27401 14.7375 2.58885 14.7379H3.02463C3.11589 15.2084 3.35875 15.6313 3.71212 15.935C4.0655 16.2387 4.50769 16.4046 4.96389 16.4046C5.42009 16.4046 5.86228 16.2387 6.21566 15.935C6.56904 15.6313 6.8119 15.2084 6.90315 14.7379H13.3163C13.4075 15.2084 13.6504 15.6313 14.0038 15.935C14.3572 16.2387 14.7993 16.4046 15.2555 16.4046C15.7117 16.4046 16.1539 16.2387 16.5073 15.935C16.8607 15.6313 17.1035 15.2084 17.1948 14.7379H18.4222C18.737 14.7375 19.0389 14.6057 19.2615 14.3714C19.4841 14.137 19.6094 13.8193 19.6097 13.4879V11.7655C19.6102 11.4681 19.5496 11.1741 19.4323 10.9036ZM4.96385 15.5712C4.72899 15.5712 4.4994 15.4979 4.30411 15.3606C4.10883 15.2232 3.95663 15.028 3.86675 14.7996C3.77687 14.5712 3.75335 14.3198 3.79917 14.0774C3.84499 13.8349 3.95809 13.6122 4.12416 13.4373C4.29024 13.2625 4.50183 13.1435 4.73218 13.0952C4.96254 13.047 5.2013 13.0718 5.41829 13.1664C5.63528 13.261 5.82074 13.4212 5.95122 13.6268C6.08171 13.8323 6.15135 14.074 6.15135 14.3212C6.15101 14.6526 6.02579 14.9704 5.80316 15.2047C5.58054 15.439 5.27869 15.5709 4.96385 15.5712ZM15.2555 15.5712C15.0206 15.5712 14.791 15.4979 14.5958 15.3606C14.4005 15.2232 14.2483 15.028 14.1584 14.7996C14.0685 14.5712 14.045 14.3198 14.0908 14.0774C14.1366 13.8349 14.2497 13.6122 14.4158 13.4373C14.5819 13.2625 14.7935 13.1435 15.0238 13.0952C15.2542 13.047 15.493 13.0718 15.7099 13.1664C15.9269 13.261 16.1124 13.4212 16.2429 13.6268C16.3734 13.8323 16.443 14.074 16.443 14.3212C16.4427 14.6526 16.3174 14.9704 16.0948 15.2047C15.8722 15.439 15.5704 15.5708 15.2555 15.5712H15.2555ZM15.6514 8.90454H17.6996L18.4192 10.5712H15.6514V8.90454Z" fill="white"/>
<path d="M1.00555 11.8212H2.9847C3.08902 11.8202 3.18872 11.7758 3.26212 11.6978C3.33553 11.6198 3.37671 11.5144 3.37671 11.4046C3.37671 11.2948 3.33553 11.1894 3.26212 11.1114C3.18872 11.0333 3.08902 10.989 2.9847 10.9879H1.00555C0.90123 10.989 0.80153 11.0333 0.728122 11.1114C0.654714 11.1894 0.613533 11.2948 0.613533 11.4046C0.613533 11.5144 0.654714 11.6198 0.728122 11.6978C0.80153 11.7758 0.90123 11.8202 1.00555 11.8212Z" fill="white"/>
</g>
<defs>
<clipPath id="clip0_101_2">
<rect width="19" height="20" fill="white" transform="translate(0.609497 0.154541)"/>
</clipPath>
</defs>
</svg>
