<svg width="116" height="110" viewBox="0 0 116 110" fill="none" xmlns="http://www.w3.org/2000/svg">
<path d="M40.9533 78.9913L43.7598 87.6286H52.8415L45.4942 92.9668L48.3007 101.604L40.9533 96.2659L33.606 101.604L36.4124 92.9668L29.0651 87.6286H38.1469L40.9533 78.9913Z" fill="#A184FF"/>
<path d="M89.4386 83.7149L84.4222 91.2855L90.0721 98.3958L81.3219 95.9644L76.3055 103.535L75.9139 94.4617L67.1637 92.0303L75.6719 88.8541L75.2804 79.7807L80.9303 86.8911L89.4386 83.7149Z" fill="#A184FF"/>
<path d="M49.0021 8.8093L45.5878 17.2248L52.5363 23.0726L43.4776 22.4259L40.0632 30.8414L37.879 22.0262L28.8203 21.3795L36.529 16.5781L34.3448 7.76292L41.2933 13.6107L49.0021 8.8093Z" fill="#A184FF"/>
<path d="M77.3857 6.08033L81.7116 14.0656L90.6429 12.419L84.3852 19.0008L88.7112 26.9861L80.5178 23.0686L74.2601 29.6504L75.454 20.6474L67.2605 16.7299L76.1918 15.0833L77.3857 6.08033Z" fill="#A184FF"/>
<path d="M102.694 42.4321L105.5 51.0694H114.582L107.235 56.4076L110.041 65.0448L102.694 59.7067L95.3463 65.0448L98.1527 56.4076L90.8054 51.0694H99.8872L102.694 42.4321Z" fill="#A184FF"/>
<path d="M12.0094 43.6008L18.2 50.2457L26.4327 46.4115L22.026 54.3525L28.2166 60.9974L19.3025 59.2603L14.8958 67.2013L13.7933 58.1867L4.87916 56.4496L13.1119 52.6154L12.0094 43.6008Z" fill="#A184FF"/>
</svg>
